<svg width="24" height="24" viewBox="0 0 24 24" fill="none" xmlns="http://www.w3.org/2000/svg">
<g clip-path="url(#clip0_185320_936)">
<rect width="24" height="24" fill="white" fill-opacity="0.01"/>
<path d="M7.66667 18.5439C7.93074 18.5439 8.15222 18.4544 8.33111 18.2756C8.51 18.0967 8.59944 17.8752 8.59944 17.6111C8.59944 17.347 8.51 17.1256 8.33111 16.9467C8.15222 16.7678 7.93074 16.6783 7.66667 16.6783C7.40259 16.6783 7.18111 16.7678 7.00222 16.9467C6.82333 17.1256 6.73389 17.347 6.73389 17.6111C6.73389 17.8752 6.82333 18.0967 7.00222 18.2756C7.18111 18.4544 7.40259 18.5439 7.66667 18.5439ZM11.5 18.5439C11.7641 18.5439 11.9856 18.4544 12.1644 18.2756C12.3433 18.0967 12.4328 17.8752 12.4328 17.6111C12.4328 17.347 12.3433 17.1256 12.1644 16.9467C11.9856 16.7678 11.7641 16.6783 11.5 16.6783C11.2359 16.6783 11.0144 16.7678 10.8356 16.9467C10.6567 17.1256 10.5672 17.347 10.5672 17.6111C10.5672 17.8752 10.6567 18.0967 10.8356 18.2756C11.0144 18.4544 11.2359 18.5439 11.5 18.5439ZM15.3333 18.5439C15.5974 18.5439 15.8189 18.4544 15.9978 18.2756C16.1767 18.0967 16.2661 17.8752 16.2661 17.6111C16.2661 17.347 16.1767 17.1256 15.9978 16.9467C15.8189 16.7678 15.5974 16.6783 15.3333 16.6783C15.0693 16.6783 14.8478 16.7678 14.6689 16.9467C14.49 17.1256 14.4006 17.347 14.4006 17.6111C14.4006 17.8752 14.49 18.0967 14.6689 18.2756C14.8478 18.4544 15.0693 18.5439 15.3333 18.5439ZM10.1583 14.1458L16.4616 7.83611L15.5569 6.92506L10.143 12.3556L7.43539 9.64033L6.532 10.5194L10.1583 14.1458ZM11.5038 24C9.91428 24 8.41928 23.6984 7.01883 23.0953C5.61924 22.4914 4.40152 21.6719 3.36567 20.6369C2.32981 19.6027 1.50991 18.3863 0.905945 16.9876C0.301982 15.5888 0 14.0942 0 12.5038C0 10.9143 0.301555 9.41928 0.904667 8.01883C1.50863 6.61924 2.32811 5.40152 3.36311 4.36567C4.39726 3.32981 5.6137 2.50991 7.01244 1.90594C8.41119 1.30198 9.90576 1 11.4962 1C13.0857 1 14.5807 1.30156 15.9812 1.90467C17.3808 2.50863 18.5985 3.32811 19.6343 4.36311C20.6702 5.39726 21.4901 6.6137 22.0941 8.01244C22.698 9.41119 23 10.9058 23 12.4962C23 14.0857 22.6984 15.5807 22.0953 16.9812C21.4914 18.3808 20.6719 19.5985 19.6369 20.6343C18.6027 21.6702 17.3863 22.4901 15.9876 23.0941C14.5888 23.698 13.0942 24 11.5038 24ZM11.5 22.7222C14.3537 22.7222 16.7708 21.7319 18.7514 19.7514C20.7319 17.7708 21.7222 15.3537 21.7222 12.5C21.7222 9.6463 20.7319 7.22917 18.7514 5.24861C16.7708 3.26806 14.3537 2.27778 11.5 2.27778C8.6463 2.27778 6.22917 3.26806 4.24861 5.24861C2.26806 7.22917 1.27778 9.6463 1.27778 12.5C1.27778 15.3537 2.26806 17.7708 4.24861 19.7514C6.22917 21.7319 8.6463 22.7222 11.5 22.7222Z" fill="#595959"/>
</g>
<defs>
<clipPath id="clip0_185320_936">
<rect width="24" height="24" fill="white"/>
</clipPath>
</defs>
</svg>
