<svg width="24" height="25" viewBox="0 0 24 25" fill="none" xmlns="http://www.w3.org/2000/svg">
<path fill-rule="evenodd" clip-rule="evenodd" d="M12.0001 1.39478C10.1436 1.39478 8.36309 2.13227 7.05033 3.44503C5.73758 4.75778 5.00008 6.53826 5.00008 8.39478C5.00008 11.7474 4.28301 13.8294 3.62218 15.0409C3.29039 15.6492 2.9673 16.0483 2.74288 16.2852C2.6304 16.4039 2.54202 16.4826 2.4888 16.5269C2.46218 16.5491 2.44432 16.5627 2.43663 16.5685L2.43377 16.5706C2.07528 16.8168 1.91664 17.2673 2.04299 17.6846C2.17068 18.1063 2.55941 18.3948 3.00008 18.3948H21.0001C21.4407 18.3948 21.8295 18.1063 21.9572 17.6846C22.0835 17.2673 21.9249 16.8168 21.5664 16.5706L21.5635 16.5685C21.5558 16.5627 21.538 16.5491 21.5114 16.5269C21.4581 16.4826 21.3698 16.4039 21.2573 16.2852C21.0329 16.0483 20.7098 15.6492 20.378 15.0409C19.7171 13.8294 19.0001 11.7474 19.0001 8.39478C19.0001 6.53826 18.2626 4.75778 16.9498 3.44503C15.6371 2.13227 13.8566 1.39478 12.0001 1.39478ZM18.6222 15.9986C18.6983 16.1381 18.7747 16.2701 18.8508 16.3948H5.1494C5.22549 16.2701 5.30188 16.1381 5.37797 15.9986C6.21715 14.4601 7.00008 12.0421 7.00008 8.39478C7.00008 7.06869 7.52686 5.79692 8.46454 4.85924C9.40223 3.92156 10.674 3.39478 12.0001 3.39478C13.3262 3.39478 14.5979 3.92156 15.5356 4.85924C16.4733 5.79692 17.0001 7.06869 17.0001 8.39478C17.0001 12.0421 17.783 14.4601 18.6222 15.9986Z" fill="#2D3648"/>
<path d="M11.1351 20.893C10.858 20.4153 10.2461 20.2527 9.76833 20.5298C9.2906 20.8069 9.12798 21.4188 9.4051 21.8965C9.66881 22.3512 10.0473 22.7285 10.5028 22.9908C10.9582 23.2532 11.4745 23.3912 12.0001 23.3912C12.5257 23.3912 13.042 23.2532 13.4974 22.9908C13.9529 22.7285 14.3314 22.3512 14.5951 21.8965C14.8722 21.4188 14.7096 20.8069 14.2319 20.5298C13.7541 20.2527 13.1422 20.4153 12.8651 20.893C12.7772 21.0445 12.651 21.1703 12.4992 21.2578C12.3474 21.3452 12.1753 21.3912 12.0001 21.3912C11.8249 21.3912 11.6528 21.3452 11.501 21.2578C11.3492 21.1703 11.223 21.0445 11.1351 20.893Z" fill="#2D3648"/>
</svg>
