<svg width="31" height="31" viewBox="0 0 31 31" fill="none" xmlns="http://www.w3.org/2000/svg">
<g clip-path="url(#clip0_182330_19515)">
<path d="M12 10.2496H11V11.2496H12V10.2496Z" fill="black"/>
<path d="M12 12.2495H11V13.2495H12V12.2495Z" fill="black"/>
<path d="M12 14.2494H11V15.2494H12V14.2494Z" fill="black"/>
<path d="M12 16.2496H11V17.2496H12V16.2496Z" fill="black"/>
<path d="M14 10.2496H13V11.2496H14V10.2496Z" fill="black"/>
<path d="M14 12.2495H13V13.2495H14V12.2495Z" fill="black"/>
<path d="M14 14.2494H13V15.2494H14V14.2494Z" fill="black"/>
<path d="M14 16.2496H13V17.2496H14V16.2496Z" fill="black"/>
<path d="M16 10.2496H15V11.2496H16V10.2496Z" fill="black"/>
<path d="M16 12.2495H15V13.2495H16V12.2495Z" fill="black"/>
<path d="M16 14.2494H15V15.2494H16V14.2494Z" fill="black"/>
<path d="M16 16.2496H15V17.2496H16V16.2496Z" fill="black"/>
<path d="M18 10.2496H17V11.2496H18V10.2496Z" fill="black"/>
<path d="M14 8.24939H13V9.24939H14V8.24939Z" fill="black"/>
<path d="M16 8.24939H15V9.24939H16V8.24939Z" fill="black"/>
<path d="M18 8.24939H17V9.24939H18V8.24939Z" fill="black"/>
<path d="M18 12.2495H17V13.2495H18V12.2495Z" fill="black"/>
<path d="M18 14.2494H17V15.2494H18V14.2494Z" fill="black"/>
<path d="M18 16.2496H17V17.2496H18V16.2496Z" fill="black"/>
<path d="M20 10.2496H19V11.2496H20V10.2496Z" fill="black"/>
<path d="M20 12.2495H19V13.2495H20V12.2495Z" fill="black"/>
<path d="M20 14.2494H19V15.2494H20V14.2494Z" fill="black"/>
<path d="M20 16.2496H19V17.2496H20V16.2496Z" fill="black"/>
<path d="M30.0006 7.74951C30.0004 7.74951 30.0002 7.74951 30 7.74951H22.5V0.749512C22.5002 0.473512 22.2766 0.249699 22.0006 0.249512C22.0004 0.249512 22.0002 0.249512 22 0.249512H9C8.724 0.249324 8.50019 0.472949 8.5 0.748949C8.5 0.749137 8.5 0.749324 8.5 0.749512V7.74951H1C0.724 7.74932 0.500188 7.97295 0.5 8.24895C0.5 8.24914 0.5 8.24932 0.5 8.24951V26.2495C0.499813 26.5255 0.723438 26.7493 0.999438 26.7495C0.999625 26.7495 0.999813 26.7495 1 26.7495H2.04519C2.01619 26.9146 2.00106 27.0819 2 27.2495V29.7495C1.99981 30.0255 2.22344 30.2493 2.49944 30.2495C2.49963 30.2495 2.49981 30.2495 2.5 30.2495H28.5C28.776 30.2497 28.9998 30.0261 29 29.7501C29 29.7499 29 29.7497 29 29.7495V27.2495C28.999 27.0819 28.9839 26.9146 28.9548 26.7495H30C30.276 26.7497 30.4998 26.5261 30.5 26.2501C30.5 26.2499 30.5 26.2497 30.5 26.2495V8.24951C30.5002 7.97351 30.2766 7.7497 30.0006 7.74951ZM22 21.7495C22 22.3018 21.5523 22.7495 21 22.7495C20.4477 22.7495 20 22.3018 20 21.7495C20 21.1972 20.4477 20.7495 21 20.7495C21.552 20.7502 21.9993 21.1975 22 21.7495ZM10 20.7495C10.5523 20.7495 11 21.1972 11 21.7495C11 22.3018 10.5523 22.7495 10 22.7495C9.44769 22.7495 9 22.3018 9 21.7495C9.00069 21.1975 9.448 20.7502 10 20.7495ZM7 29.2495H3V27.2495C3 26.1449 3.89544 25.2495 5 25.2495C6.10456 25.2495 7 26.1449 7 27.2495V29.2495ZM4 23.2495C4 22.6972 4.44769 22.2495 5 22.2495C5.55231 22.2495 6 22.6972 6 23.2495C6 23.8018 5.55231 24.2495 5 24.2495C4.448 24.2488 4.00069 23.8015 4 23.2495ZM7.07575 25.0886C6.88719 24.9067 6.67575 24.7502 6.44675 24.623C7.20938 23.824 7.17994 22.558 6.38094 21.7953C5.58194 21.0326 4.31594 21.0621 3.55325 21.8611C2.81556 22.6339 2.81556 23.8501 3.55325 24.6229C3.076 24.8878 2.6795 25.2771 2.40588 25.7494H1.5V8.74951H8.5V20.4405C7.81337 21.2109 7.83656 22.3804 8.55325 23.123C7.80325 23.5378 7.26581 24.2528 7.07575 25.0886ZM12 29.2495H8V25.7495C8 24.6449 8.89544 23.7495 10 23.7495C11.1046 23.7495 12 24.6449 12 25.7495V29.2495ZM18 29.2495H13V25.7495C13 24.3688 14.1193 23.2495 15.5 23.2495C16.8807 23.2495 18 24.3688 18 25.7495V29.2495ZM14 20.7495C14 19.9211 14.6716 19.2495 15.5 19.2495C16.3284 19.2495 17 19.9211 17 20.7495C17 21.5779 16.3284 22.2495 15.5 22.2495C14.6719 22.2486 14.0009 21.5776 14 20.7495ZM18.5451 24.0304C18.2103 23.4402 17.7122 22.9593 17.1106 22.6454C18.1666 21.7559 18.3016 20.1788 17.4122 19.1227C16.5227 18.0666 14.9455 17.9316 13.8894 18.8211C12.8334 19.7106 12.6984 21.2878 13.5878 22.3438C13.6796 22.4528 13.7804 22.5536 13.8894 22.6454C13.2878 22.9593 12.7897 23.4402 12.4549 24.0304C12.192 23.6554 11.8472 23.3451 11.4467 23.123C12.2133 22.3388 12.1991 21.0816 11.4148 20.3151C10.9099 19.8214 10.1808 19.6332 9.5 19.8205V1.24951H21.5V19.8205C21.3371 19.7756 21.169 19.7517 21 19.7495C19.8984 19.7466 19.0029 20.6373 19 21.7389C18.9986 22.2544 19.1969 22.7505 19.5532 23.123C19.1528 23.3451 18.808 23.6554 18.5451 24.0304ZM23 27.2495V29.2495H19V25.7495C19 24.6449 19.8954 23.7495 21 23.7495C22.1046 23.7495 23 24.6449 23 25.7495V27.2495ZM28 29.2495H24V27.2495C24 26.1449 24.8954 25.2495 26 25.2495C27.1046 25.2495 28 26.1449 28 27.2495V29.2495ZM25 23.2495C25 22.6972 25.4477 22.2495 26 22.2495C26.5523 22.2495 27 22.6972 27 23.2495C27 23.8018 26.5523 24.2495 26 24.2495C25.448 24.2488 25.0007 23.8015 25 23.2495ZM29.5 25.7495H28.5941C28.3205 25.2772 27.924 24.8879 27.4468 24.623C28.2094 23.824 28.1799 22.558 27.3809 21.7953C26.5819 21.0327 25.3159 21.0621 24.5532 21.8611C23.8156 22.6339 23.8156 23.8501 24.5532 24.6229C24.3242 24.7501 24.1127 24.9066 23.9242 25.0885C23.7342 24.2528 23.1968 23.5378 22.4468 23.1229C23.1634 22.3804 23.1867 21.2109 22.5001 20.4404V8.74951H29.5001V25.7495H29.5Z" fill="black"/>
<path d="M25 11.7496H24V19.7496H25V11.7496Z" fill="black"/>
<path d="M28 11.7496H27V19.7496H28V11.7496Z" fill="black"/>
<path d="M4 11.7496H3V19.7496H4V11.7496Z" fill="black"/>
<path d="M7 11.7496H6V19.7496H7V11.7496Z" fill="black"/>
<path d="M18.5006 2.24939C18.5004 2.24939 18.5002 2.24939 18.5 2.24939H12.5C12.224 2.2492 12.0002 2.47283 12 2.74883C12 2.74901 12 2.7492 12 2.74939V6.74939C11.9998 7.02539 12.2234 7.2492 12.4994 7.24939C12.4996 7.24939 12.4998 7.24939 12.5 7.24939H18.5C18.776 7.24958 18.9998 7.02595 19 6.74995C19 6.74976 19 6.74958 19 6.74939V2.74939C19.0002 2.47339 18.7766 2.24958 18.5006 2.24939ZM18 6.24939H13V3.24939H18V6.24939Z" fill="black"/>
</g>
<defs>
<clipPath id="clip0_182330_19515">
<rect width="30" height="30" fill="white" transform="translate(0.5 0.249512)"/>
</clipPath>
</defs>
</svg>
